<svg width="16" height="16" viewBox="0 0 16 16" fill="none" xmlns="http://www.w3.org/2000/svg">
<path d="M6.5 5.75H9.5" stroke="white" stroke-linecap="round" stroke-linejoin="round"/>
<path d="M14.35 9.64376L11.6187 3.43751C11.3367 3.15851 10.9561 3.00201 10.5594 3.00201C10.1627 3.00201 9.782 3.15851 9.5 3.43751V10.5" stroke="white" stroke-linecap="round" stroke-linejoin="round"/>
<path d="M6.4999 10.5V3.43751C6.2179 3.15851 5.83722 3.00201 5.44053 3.00201C5.04383 3.00201 4.66315 3.15851 4.38115 3.43751L1.6499 9.64376" stroke="white" stroke-linecap="round" stroke-linejoin="round"/>
<path d="M4 13C5.38071 13 6.5 11.8807 6.5 10.5C6.5 9.11929 5.38071 8 4 8C2.61929 8 1.5 9.11929 1.5 10.5C1.5 11.8807 2.61929 13 4 13Z" stroke="white" stroke-linecap="round" stroke-linejoin="round"/>
<path d="M12 13C13.3807 13 14.5 11.8807 14.5 10.5C14.5 9.11929 13.3807 8 12 8C10.6193 8 9.5 9.11929 9.5 10.5C9.5 11.8807 10.6193 13 12 13Z" stroke="white" stroke-linecap="round" stroke-linejoin="round"/>
</svg>
