<svg width="16" height="16" viewBox="0 0 16 16" fill="none" xmlns="http://www.w3.org/2000/svg">
<path d="M8 11C9.65685 11 11 9.65685 11 8C11 6.34315 9.65685 5 8 5C6.34315 5 5 6.34315 5 8C5 9.65685 6.34315 11 8 11Z" stroke="white" stroke-linecap="round" stroke-linejoin="round"/>
<path d="M11.4813 4.06876C11.6397 4.21459 11.7897 4.36459 11.9313 4.51876L13.6376 4.76251C13.9156 5.24532 14.1299 5.76212 14.2751 6.30001L13.2376 7.68126C13.2376 7.68126 13.2563 8.10626 13.2376 8.31876L14.2751 9.70001C14.1306 10.2381 13.9162 10.755 13.6376 11.2375L11.9313 11.4813C11.9313 11.4813 11.6376 11.7875 11.4813 11.9313L11.2376 13.6375C10.7548 13.9155 10.238 14.1298 9.7001 14.275L8.31885 13.2375C8.10676 13.2563 7.89343 13.2563 7.68135 13.2375L6.3001 14.275C5.76199 14.1305 5.2451 13.9162 4.7626 13.6375L4.51885 11.9313C4.36468 11.7854 4.21468 11.6354 4.06885 11.4813L2.3626 11.2375C2.08459 10.7547 1.8703 10.2379 1.7251 9.70001L2.7626 8.31876C2.7626 8.31876 2.74385 7.89376 2.7626 7.68126L1.7251 6.30001C1.86963 5.7619 2.08395 5.24501 2.3626 4.76251L4.06885 4.51876C4.21468 4.36459 4.36468 4.21459 4.51885 4.06876L4.7626 2.36251C5.24541 2.08449 5.76222 1.87021 6.3001 1.72501L7.68135 2.76251C7.89343 2.74375 8.10676 2.74375 8.31885 2.76251L9.7001 1.72501C10.2382 1.86954 10.7551 2.08386 11.2376 2.36251L11.4813 4.06876Z" stroke="white" stroke-linecap="round" stroke-linejoin="round"/>
</svg>
